<svg xmlns="http://www.w3.org/2000/svg" viewBox="0 0 191.28 184.65">
  <path fill="currentColor" d="m187.11,59.94c-.13-.78-.68-1.42-1.42-1.66-.75-.24-1.56-.05-2.13.5-.11.11-11.39,10.92-33.65,7.82,12.38-18.85,8.75-43.27,8.69-43.64-.13-.78-.68-1.42-1.42-1.66-.75-.24-1.56-.05-2.13.5-.11.11-11.57,11.11-34.19,7.75-15.77-2.34-27.19-.24-33.96,6.23-7.03,6.73-6.2,15.58-6.16,15.96.12,1.15,1.15,1.99,2.3,1.87,1.14-.13,1.99-1.15,1.87-2.31,0-.07-.67-7.17,4.89-12.49,5.78-5.53,16.02-7.25,30.44-5.12,17.99,2.67,29.46-2.94,34.62-6.43.58,7.56.63,25.16-9.46,38.77-13.72-1.44-23.79.82-29.98,6.73-3.78,3.62-5.28,7.85-5.86,11.04-5.17.59-9.34.65-12.71.36.63-7.59,1.11-14.53,1.45-20.03,15.87.32,30.47-.84,41.3-10.29.95-.84,1-2.11.11-2.84-.44-.35-1.04-.53-1.67-.49-.64.04-1.25.29-1.72.69-11.47,10-28.25,9.34-47.68,8.57-6.89-.27-14.07-.55-21.41-.38,1.57-16.31,2.49-31.51,2.89-38.8.04-.81.47-1.6,1.19-2.2.73-.59,1.68-.93,2.64-.93,6.01-.04,11.89.19,17.57.41,19.8.79,38.51,1.53,51.66-9.95.95-.84,1-2.11.11-2.84-.44-.35-1.04-.53-1.67-.49-.64.04-1.25.29-1.72.69-11.47,10-28.25,9.34-47.68,8.57-8.65-.34-21.48-3.04-24.79-.28-1.74,1.45-2.06,6.37-2.1,7.18-.39,7.27-1.32,22.5-2.89,38.81-15.08.8-30.74,3.92-46.01,13.3C.02,82.95-.49,94.86,4.48,102.65c4.58,7.21,13.59,10.8,21.24,8.77.68-.18,1.34-.41,1.99-.67.83-.31,1.43-.96,1.57-1.7.14-.73-.2-1.44-.89-1.83-.69-.4-1.62-.41-2.43-.05-5.62,2.29-13.36-.68-17.2-6.68-1.95-3.05-6.98-13.85,10.23-24.43,11.74-7.07,25.35-11.29,39.15-12.15.97-.09,1.91.15,2.59.68.64.5.98,1.2.99,1.96-.04.35-.07.7-.11,1.06h.07c-.38,6.91-1.21,19.91-2.52,34.19-4.76,1.82-9.51,4.11-14.22,7.01-16.4,10.08-16.91,21.99-11.93,29.77,4.58,7.21,13.59,10.8,21.24,8.77.68-.18,1.34-.41,1.99-.67.15-.05.28-.13.41-.21.5-.06,1.7-1.43,1.81-1.97,2.23-11.45,3.97-26.22,5.27-40.08,7.38-2.55,15.13-4.11,22.94-4.6.97-.09,1.91.15,2.59.68.68.53,1.04,1.29,1,2.1-.71,13.01-3.11,51.53-7.88,76.06-.22,1.11.67,2.08,1.98,2.15,1.31.07,2.55-.77,2.76-1.89,4.66-23.99,7.08-61.11,7.87-75.27h0c.07-.65.14-1.29.21-1.94.18-.55.54-1.07,1.05-1.48.73-.59,1.68-.93,2.64-.93,6.01-.04,11.89.19,17.57.41,19.8.79,38.51,1.53,51.66-9.95.95-.84,1-2.11.11-2.84-.44-.35-1.04-.53-1.67-.49-.64.04-1.25.29-1.72.69-11.47,10-28.25,9.34-47.68,8.57-6.86-.27-14-.55-21.31-.38.23-2.35.44-4.68.64-6.97,5.42.47,12.01.06,19.76-1.23,2.1-.35,4.11-.79,6.01-1.29,11.39-3.02,19.32-8.66,24.82-15.36.56.07,1.11.14,1.68.22,17.99,2.67,29.46-2.94,34.62-6.43.92,11.96.51,49.08-39.31,55.69-20.18,3.37-27.97-.08-30.95-3.56-3.25-3.8-1.68-8.66-1.62-8.86.38-1.1-.21-2.29-1.3-2.67-1.09-.37-2.29.2-2.67,1.3-.1.29-2.42,7.26,2.35,12.9,5.34,6.3,17.07,8,34.87,5.03,2.1-.35,4.11-.79,6.01-1.29,43.99-11.65,36.43-62.32,36.35-62.85ZM53.77,143.32c-5.55,1.79-12.81-1.17-16.49-6.92-1.95-3.05-6.98-13.85,10.23-24.43,3.58-2.16,7.34-4.04,11.22-5.66-1.26,12.86-2.9,26.31-4.95,37.01Zm37.27-47.83c-8.84.46-17.88,1.73-26.93,4.57,1.27-14.33,2.06-27.15,2.41-33.55.04-.81.47-1.6,1.19-2.2.73-.59,1.68-.93,2.64-.93,6.01-.04,11.89.19,17.57.41,1.87.07,3.74.15,5.59.21-.33,5.33-.79,12.06-1.4,19.43-3.91-.94-6.19-2.48-7.52-4.03-3.25-3.8-1.68-8.66-1.62-8.86.38-1.1-.21-2.29-1.3-2.67-1.09-.37-2.29.2-2.67,1.3-.1.29-2.42,7.26,2.35,12.9,2.29,2.71,5.77,4.56,10.4,5.56-.22,2.57-.46,5.19-.72,7.85Zm24.5-12.52c-.53.09-1.05.17-1.57.25.61-2.3,1.85-5.04,4.34-7.42,4.84-4.63,12.83-6.58,23.76-5.84-5.89,6.12-14.37,10.99-26.53,13.01Z"/>
</svg>
